<?xml version="1.0" encoding="UTF-8" standalone="no"?>
<!DOCTYPE svg PUBLIC "-//W3C//DTD SVG 1.1//EN"
 "http://www.w3.org/Graphics/SVG/1.1/DTD/svg11.dtd">
<!-- Generated by graphviz version 14.0.5 (20251129.0259)
 -->
<!-- Pages: 1 -->
<svg width="334pt" height="260pt"
 viewBox="0.00 0.00 334.00 260.00" xmlns="http://www.w3.org/2000/svg" xmlns:xlink="http://www.w3.org/1999/xlink">
<g id="graph0" class="graph" transform="scale(1 1) rotate(0) translate(4 256)">
<polygon fill="white" stroke="none" points="-4,4 -4,-256 329.82,-256 329.82,4 -4,4"/>
<!-- Smoker -->
<g id="node1" class="node">
<title>Smoker</title>
<ellipse fill="none" stroke="black" cx="92.3" cy="-234" rx="40.09" ry="18"/>
<text xml:space="preserve" text-anchor="middle" x="92.3" y="-228.95" font-family="Times,serif" font-size="14.00">Smoker</text>
</g>
<!-- Bronchitis -->
<g id="node3" class="node">
<title>Bronchitis</title>
<ellipse fill="none" stroke="black" cx="49.3" cy="-90" rx="49.3" ry="18"/>
<text xml:space="preserve" text-anchor="middle" x="49.3" y="-84.95" font-family="Times,serif" font-size="14.00">Bronchitis</text>
</g>
<!-- Smoker&#45;&gt;Bronchitis -->
<g id="edge2" class="edge">
<title>Smoker&#45;&gt;Bronchitis</title>
<path fill="none" stroke="black" d="M83.57,-216.19C78.53,-205.95 72.41,-192.47 68.3,-180 61.81,-160.24 56.97,-137.28 53.8,-119.62"/>
<polygon fill="black" stroke="black" points="57.26,-119.11 52.13,-109.84 50.36,-120.29 57.26,-119.11"/>
</g>
<!-- Lung cancer -->
<g id="node4" class="node">
<title>Lung cancer</title>
<ellipse fill="none" stroke="black" cx="134.3" cy="-162" rx="56.98" ry="18"/>
<text xml:space="preserve" text-anchor="middle" x="134.3" y="-156.95" font-family="Times,serif" font-size="14.00">Lung cancer</text>
</g>
<!-- Smoker&#45;&gt;Lung cancer -->
<g id="edge3" class="edge">
<title>Smoker&#45;&gt;Lung cancer</title>
<path fill="none" stroke="black" d="M102.26,-216.41C107.05,-208.42 112.92,-198.64 118.32,-189.64"/>
<polygon fill="black" stroke="black" points="121.21,-191.63 123.35,-181.25 115.21,-188.03 121.21,-191.63"/>
</g>
<!-- Visit to Asia -->
<g id="node2" class="node">
<title>Visit to Asia</title>
<ellipse fill="none" stroke="black" cx="267.3" cy="-234" rx="57.49" ry="18"/>
<text xml:space="preserve" text-anchor="middle" x="267.3" y="-228.95" font-family="Times,serif" font-size="14.00">Visit to Asia</text>
</g>
<!-- Tuberculosis -->
<g id="node5" class="node">
<title>Tuberculosis</title>
<ellipse fill="none" stroke="black" cx="267.3" cy="-162" rx="58.52" ry="18"/>
<text xml:space="preserve" text-anchor="middle" x="267.3" y="-156.95" font-family="Times,serif" font-size="14.00">Tuberculosis</text>
</g>
<!-- Visit to Asia&#45;&gt;Tuberculosis -->
<g id="edge1" class="edge">
<title>Visit to Asia&#45;&gt;Tuberculosis</title>
<path fill="none" stroke="black" d="M267.3,-215.7C267.3,-208.41 267.3,-199.73 267.3,-191.54"/>
<polygon fill="black" stroke="black" points="270.8,-191.62 267.3,-181.62 263.8,-191.62 270.8,-191.62"/>
</g>
<!-- Dispnea -->
<g id="node7" class="node">
<title>Dispnea</title>
<ellipse fill="none" stroke="black" cx="51.3" cy="-18" rx="41.12" ry="18"/>
<text xml:space="preserve" text-anchor="middle" x="51.3" y="-12.95" font-family="Times,serif" font-size="14.00">Dispnea</text>
</g>
<!-- Bronchitis&#45;&gt;Dispnea -->
<g id="edge8" class="edge">
<title>Bronchitis&#45;&gt;Dispnea</title>
<path fill="none" stroke="black" d="M49.8,-71.7C50.01,-64.41 50.25,-55.73 50.49,-47.54"/>
<polygon fill="black" stroke="black" points="53.99,-47.71 50.77,-37.62 46.99,-47.51 53.99,-47.71"/>
</g>
<!-- TB or cancer -->
<g id="node6" class="node">
<title>TB or cancer</title>
<ellipse fill="none" stroke="black" cx="176.3" cy="-90" rx="59.54" ry="18"/>
<text xml:space="preserve" text-anchor="middle" x="176.3" y="-84.95" font-family="Times,serif" font-size="14.00">TB or cancer</text>
</g>
<!-- Lung cancer&#45;&gt;TB or cancer -->
<g id="edge5" class="edge">
<title>Lung cancer&#45;&gt;TB or cancer</title>
<path fill="none" stroke="black" d="M144.47,-144.05C149.27,-136.06 155.11,-126.33 160.46,-117.4"/>
<polygon fill="black" stroke="black" points="163.31,-119.46 165.45,-109.09 157.31,-115.86 163.31,-119.46"/>
</g>
<!-- Tuberculosis&#45;&gt;TB or cancer -->
<g id="edge4" class="edge">
<title>Tuberculosis&#45;&gt;TB or cancer</title>
<path fill="none" stroke="black" d="M246.2,-144.76C234.37,-135.66 219.41,-124.16 206.38,-114.13"/>
<polygon fill="black" stroke="black" points="208.56,-111.39 198.5,-108.07 204.29,-116.94 208.56,-111.39"/>
</g>
<!-- TB or cancer&#45;&gt;Dispnea -->
<g id="edge6" class="edge">
<title>TB or cancer&#45;&gt;Dispnea</title>
<path fill="none" stroke="black" d="M148.87,-73.64C130.27,-63.22 105.53,-49.37 85.62,-38.22"/>
<polygon fill="black" stroke="black" points="87.47,-35.24 77.03,-33.41 84.05,-41.35 87.47,-35.24"/>
</g>
<!-- Positive X&#45;ray -->
<g id="node8" class="node">
<title>Positive X&#45;ray</title>
<ellipse fill="none" stroke="black" cx="176.3" cy="-18" rx="64.66" ry="18"/>
<text xml:space="preserve" text-anchor="middle" x="176.3" y="-12.95" font-family="Times,serif" font-size="14.00">Positive X&#45;ray</text>
</g>
<!-- TB or cancer&#45;&gt;Positive X&#45;ray -->
<g id="edge7" class="edge">
<title>TB or cancer&#45;&gt;Positive X&#45;ray</title>
<path fill="none" stroke="black" d="M176.3,-71.7C176.3,-64.41 176.3,-55.73 176.3,-47.54"/>
<polygon fill="black" stroke="black" points="179.8,-47.62 176.3,-37.62 172.8,-47.62 179.8,-47.62"/>
</g>
</g>
</svg>
