<?xml version="1.0" encoding="UTF-8" standalone="no"?>
<!DOCTYPE svg PUBLIC "-//W3C//DTD SVG 1.1//EN"
 "http://www.w3.org/Graphics/SVG/1.1/DTD/svg11.dtd">
<!-- Generated by graphviz version 7.0.2 (20221119.0110)
 -->
<!-- Pages: 1 -->
<svg width="322pt" height="260pt"
 viewBox="0.00 0.00 322.34 260.00" xmlns="http://www.w3.org/2000/svg" xmlns:xlink="http://www.w3.org/1999/xlink">
<g id="graph0" class="graph" transform="scale(1 1) rotate(0) translate(4 256)">
<polygon fill="white" stroke="none" points="-4,4 -4,-256 318.34,-256 318.34,4 -4,4"/>
<!-- Smoker -->
<g id="node1" class="node">
<title>Smoker</title>
<ellipse fill="none" stroke="black" cx="89.45" cy="-234" rx="38.19" ry="18"/>
<text text-anchor="middle" x="89.45" y="-230.3" font-family="Times,serif" font-size="14.00">Smoker</text>
</g>
<!-- Bronchitis -->
<g id="node3" class="node">
<title>Bronchitis</title>
<ellipse fill="none" stroke="black" cx="47.45" cy="-90" rx="47.39" ry="18"/>
<text text-anchor="middle" x="47.45" y="-86.3" font-family="Times,serif" font-size="14.00">Bronchitis</text>
</g>
<!-- Smoker&#45;&gt;Bronchitis -->
<g id="edge2" class="edge">
<title>Smoker&#45;&gt;Bronchitis</title>
<path fill="none" stroke="black" d="M81.11,-216.15C76.29,-205.89 70.42,-192.42 66.45,-180 60.1,-160.19 55.26,-137.23 52.05,-119.59"/>
<polygon fill="black" stroke="black" points="55.51,-119.07 50.35,-109.82 48.62,-120.27 55.51,-119.07"/>
</g>
<!-- Lung cancer -->
<g id="node4" class="node">
<title>Lung cancer</title>
<ellipse fill="none" stroke="black" cx="130.45" cy="-162" rx="54.69" ry="18"/>
<text text-anchor="middle" x="130.45" y="-158.3" font-family="Times,serif" font-size="14.00">Lung cancer</text>
</g>
<!-- Smoker&#45;&gt;Lung cancer -->
<g id="edge3" class="edge">
<title>Smoker&#45;&gt;Lung cancer</title>
<path fill="none" stroke="black" d="M99.16,-216.41C103.84,-208.42 109.57,-198.64 114.84,-189.64"/>
<polygon fill="black" stroke="black" points="117.72,-191.66 119.75,-181.26 111.68,-188.12 117.72,-191.66"/>
</g>
<!-- Visit to Asia -->
<g id="node2" class="node">
<title>Visit to Asia</title>
<ellipse fill="none" stroke="black" cx="258.45" cy="-234" rx="55.49" ry="18"/>
<text text-anchor="middle" x="258.45" y="-230.3" font-family="Times,serif" font-size="14.00">Visit to Asia</text>
</g>
<!-- Tuberculosis -->
<g id="node5" class="node">
<title>Tuberculosis</title>
<ellipse fill="none" stroke="black" cx="258.45" cy="-162" rx="55.79" ry="18"/>
<text text-anchor="middle" x="258.45" y="-158.3" font-family="Times,serif" font-size="14.00">Tuberculosis</text>
</g>
<!-- Visit to Asia&#45;&gt;Tuberculosis -->
<g id="edge1" class="edge">
<title>Visit to Asia&#45;&gt;Tuberculosis</title>
<path fill="none" stroke="black" d="M258.45,-215.7C258.45,-208.41 258.45,-199.73 258.45,-191.54"/>
<polygon fill="black" stroke="black" points="261.95,-191.62 258.45,-181.62 254.95,-191.62 261.95,-191.62"/>
</g>
<!-- Dispnea -->
<g id="node7" class="node">
<title>Dispnea</title>
<ellipse fill="none" stroke="black" cx="49.45" cy="-18" rx="39.79" ry="18"/>
<text text-anchor="middle" x="49.45" y="-14.3" font-family="Times,serif" font-size="14.00">Dispnea</text>
</g>
<!-- Bronchitis&#45;&gt;Dispnea -->
<g id="edge8" class="edge">
<title>Bronchitis&#45;&gt;Dispnea</title>
<path fill="none" stroke="black" d="M47.94,-71.7C48.15,-64.41 48.4,-55.73 48.63,-47.54"/>
<polygon fill="black" stroke="black" points="52.13,-47.71 48.91,-37.62 45.13,-47.51 52.13,-47.71"/>
</g>
<!-- TB or cancer -->
<g id="node6" class="node">
<title>TB or cancer</title>
<ellipse fill="none" stroke="black" cx="170.45" cy="-90" rx="57.39" ry="18"/>
<text text-anchor="middle" x="170.45" y="-86.3" font-family="Times,serif" font-size="14.00">TB or cancer</text>
</g>
<!-- Lung cancer&#45;&gt;TB or cancer -->
<g id="edge5" class="edge">
<title>Lung cancer&#45;&gt;TB or cancer</title>
<path fill="none" stroke="black" d="M140.13,-144.05C144.65,-136.14 150.14,-126.54 155.2,-117.69"/>
<polygon fill="black" stroke="black" points="158.18,-119.52 160.1,-109.1 152.1,-116.05 158.18,-119.52"/>
</g>
<!-- Tuberculosis&#45;&gt;TB or cancer -->
<g id="edge4" class="edge">
<title>Tuberculosis&#45;&gt;TB or cancer</title>
<path fill="none" stroke="black" d="M238.04,-144.76C226.6,-135.66 212.14,-124.16 199.53,-114.13"/>
<polygon fill="black" stroke="black" points="201.93,-111.58 191.93,-108.09 197.58,-117.05 201.93,-111.58"/>
</g>
<!-- TB or cancer&#45;&gt;Dispnea -->
<g id="edge6" class="edge">
<title>TB or cancer&#45;&gt;Dispnea</title>
<path fill="none" stroke="black" d="M143.89,-73.64C125.97,-63.27 102.16,-49.5 82.93,-38.37"/>
<polygon fill="black" stroke="black" points="84.79,-35.4 74.38,-33.43 81.29,-41.46 84.79,-35.4"/>
</g>
<!-- Positive X&#45;ray -->
<g id="node8" class="node">
<title>Positive X&#45;ray</title>
<ellipse fill="none" stroke="black" cx="170.45" cy="-18" rx="61.99" ry="18"/>
<text text-anchor="middle" x="170.45" y="-14.3" font-family="Times,serif" font-size="14.00">Positive X&#45;ray</text>
</g>
<!-- TB or cancer&#45;&gt;Positive X&#45;ray -->
<g id="edge7" class="edge">
<title>TB or cancer&#45;&gt;Positive X&#45;ray</title>
<path fill="none" stroke="black" d="M170.45,-71.7C170.45,-64.41 170.45,-55.73 170.45,-47.54"/>
<polygon fill="black" stroke="black" points="173.95,-47.62 170.45,-37.62 166.95,-47.62 173.95,-47.62"/>
</g>
</g>
</svg>
