<?xml version="1.0" encoding="UTF-8" standalone="no"?>
<!DOCTYPE svg PUBLIC "-//W3C//DTD SVG 1.1//EN"
 "http://www.w3.org/Graphics/SVG/1.1/DTD/svg11.dtd">
<!-- Generated by graphviz version 2.49.2 (20211016.1639)
 -->
<!-- Pages: 1 -->
<svg width="329pt" height="260pt"
 viewBox="0.00 0.00 328.94 260.00" xmlns="http://www.w3.org/2000/svg" xmlns:xlink="http://www.w3.org/1999/xlink">
<g id="graph0" class="graph" transform="scale(1 1) rotate(0) translate(4 256)">
<polygon fill="white" stroke="transparent" points="-4,4 -4,-256 324.94,-256 324.94,4 -4,4"/>
<!-- Smoker -->
<g id="node1" class="node">
<title>Smoker</title>
<ellipse fill="none" stroke="black" cx="90.75" cy="-234" rx="38.99" ry="18"/>
<text text-anchor="middle" x="90.75" y="-230.3" font-family="Times,serif" font-size="14.00">Smoker</text>
</g>
<!-- Bronchitis -->
<g id="node3" class="node">
<title>Bronchitis</title>
<ellipse fill="none" stroke="black" cx="48.75" cy="-90" rx="48.99" ry="18"/>
<text text-anchor="middle" x="48.75" y="-86.3" font-family="Times,serif" font-size="14.00">Bronchitis</text>
</g>
<!-- Smoker&#45;&gt;Bronchitis -->
<g id="edge2" class="edge">
<title>Smoker&#45;&gt;Bronchitis</title>
<path fill="none" stroke="black" d="M82.4,-216.15C77.59,-205.89 71.72,-192.42 67.75,-180 61.21,-159.59 56.27,-135.83 53.06,-117.99"/>
<polygon fill="black" stroke="black" points="56.49,-117.25 51.34,-107.99 49.59,-118.44 56.49,-117.25"/>
</g>
<!-- Lung cancer -->
<g id="node4" class="node">
<title>Lung cancer</title>
<ellipse fill="none" stroke="black" cx="132.75" cy="-162" rx="55.79" ry="18"/>
<text text-anchor="middle" x="132.75" y="-158.3" font-family="Times,serif" font-size="14.00">Lung cancer</text>
</g>
<!-- Smoker&#45;&gt;Lung cancer -->
<g id="edge3" class="edge">
<title>Smoker&#45;&gt;Lung cancer</title>
<path fill="none" stroke="black" d="M100.7,-216.41C105.65,-208.16 111.74,-198.01 117.28,-188.78"/>
<polygon fill="black" stroke="black" points="120.43,-190.33 122.57,-179.96 114.43,-186.73 120.43,-190.33"/>
</g>
<!-- Visit to Asia -->
<g id="node2" class="node">
<title>Visit to Asia</title>
<ellipse fill="none" stroke="black" cx="263.75" cy="-234" rx="55.79" ry="18"/>
<text text-anchor="middle" x="263.75" y="-230.3" font-family="Times,serif" font-size="14.00">Visit to Asia</text>
</g>
<!-- Tuberculosis -->
<g id="node5" class="node">
<title>Tuberculosis</title>
<ellipse fill="none" stroke="black" cx="263.75" cy="-162" rx="57.39" ry="18"/>
<text text-anchor="middle" x="263.75" y="-158.3" font-family="Times,serif" font-size="14.00">Tuberculosis</text>
</g>
<!-- Visit to Asia&#45;&gt;Tuberculosis -->
<g id="edge1" class="edge">
<title>Visit to Asia&#45;&gt;Tuberculosis</title>
<path fill="none" stroke="black" d="M263.75,-215.7C263.75,-207.98 263.75,-198.71 263.75,-190.11"/>
<polygon fill="black" stroke="black" points="267.25,-190.1 263.75,-180.1 260.25,-190.1 267.25,-190.1"/>
</g>
<!-- Dispnea -->
<g id="node7" class="node">
<title>Dispnea</title>
<ellipse fill="none" stroke="black" cx="50.75" cy="-18" rx="40.09" ry="18"/>
<text text-anchor="middle" x="50.75" y="-14.3" font-family="Times,serif" font-size="14.00">Dispnea</text>
</g>
<!-- Bronchitis&#45;&gt;Dispnea -->
<g id="edge8" class="edge">
<title>Bronchitis&#45;&gt;Dispnea</title>
<path fill="none" stroke="black" d="M49.24,-71.7C49.46,-63.98 49.73,-54.71 49.97,-46.11"/>
<polygon fill="black" stroke="black" points="53.47,-46.2 50.26,-36.1 46.47,-46 53.47,-46.2"/>
</g>
<!-- TB or cancer -->
<g id="node6" class="node">
<title>TB or cancer</title>
<ellipse fill="none" stroke="black" cx="173.75" cy="-90" rx="58.49" ry="18"/>
<text text-anchor="middle" x="173.75" y="-86.3" font-family="Times,serif" font-size="14.00">TB or cancer</text>
</g>
<!-- Lung cancer&#45;&gt;TB or cancer -->
<g id="edge5" class="edge">
<title>Lung cancer&#45;&gt;TB or cancer</title>
<path fill="none" stroke="black" d="M142.67,-144.05C147.51,-135.8 153.42,-125.7 158.79,-116.54"/>
<polygon fill="black" stroke="black" points="161.88,-118.19 163.91,-107.79 155.84,-114.65 161.88,-118.19"/>
</g>
<!-- Tuberculosis&#45;&gt;TB or cancer -->
<g id="edge4" class="edge">
<title>Tuberculosis&#45;&gt;TB or cancer</title>
<path fill="none" stroke="black" d="M243.32,-145.12C231.21,-135.7 215.67,-123.61 202.35,-113.25"/>
<polygon fill="black" stroke="black" points="204.44,-110.44 194.4,-107.06 200.14,-115.97 204.44,-110.44"/>
</g>
<!-- TB or cancer&#45;&gt;Dispnea -->
<g id="edge6" class="edge">
<title>TB or cancer&#45;&gt;Dispnea</title>
<path fill="none" stroke="black" d="M147.06,-73.81C128.43,-63.21 103.45,-49 83.6,-37.7"/>
<polygon fill="black" stroke="black" points="85.3,-34.64 74.88,-32.74 81.84,-40.72 85.3,-34.64"/>
</g>
<!-- Positive X&#45;ray -->
<g id="node8" class="node">
<title>Positive X&#45;ray</title>
<ellipse fill="none" stroke="black" cx="173.75" cy="-18" rx="63.89" ry="18"/>
<text text-anchor="middle" x="173.75" y="-14.3" font-family="Times,serif" font-size="14.00">Positive X&#45;ray</text>
</g>
<!-- TB or cancer&#45;&gt;Positive X&#45;ray -->
<g id="edge7" class="edge">
<title>TB or cancer&#45;&gt;Positive X&#45;ray</title>
<path fill="none" stroke="black" d="M173.75,-71.7C173.75,-63.98 173.75,-54.71 173.75,-46.11"/>
<polygon fill="black" stroke="black" points="177.25,-46.1 173.75,-36.1 170.25,-46.1 177.25,-46.1"/>
</g>
</g>
</svg>
