<?xml version="1.0" encoding="UTF-8" standalone="no"?>
<!DOCTYPE svg PUBLIC "-//W3C//DTD SVG 1.1//EN"
 "http://www.w3.org/Graphics/SVG/1.1/DTD/svg11.dtd">
<!-- Generated by graphviz version 2.42.3 (20191010.1750)
 -->
<!-- Title: %3 Pages: 1 -->
<svg width="320pt" height="260pt"
 viewBox="0.00 0.00 320.43 260.00" xmlns="http://www.w3.org/2000/svg" xmlns:xlink="http://www.w3.org/1999/xlink">
<g id="graph0" class="graph" transform="scale(1 1) rotate(0) translate(4 256)">
<title>%3</title>
<polygon fill="white" stroke="transparent" points="-4,4 -4,-256 316.43,-256 316.43,4 -4,4"/>
<!-- Visit to Asia -->
<g id="node1" class="node">
<title>Visit to Asia</title>
<ellipse fill="none" stroke="black" cx="55.48" cy="-234" rx="53.61" ry="18"/>
<text text-anchor="middle" x="55.48" y="-229.8" font-family="Times,serif" font-size="14.00">Visit to Asia</text>
</g>
<!-- Tuberculosis -->
<g id="node2" class="node">
<title>Tuberculosis</title>
<ellipse fill="none" stroke="black" cx="55.48" cy="-162" rx="55.46" ry="18"/>
<text text-anchor="middle" x="55.48" y="-157.8" font-family="Times,serif" font-size="14.00">Tuberculosis</text>
</g>
<!-- Visit to Asia&#45;&gt;Tuberculosis -->
<g id="edge1" class="edge">
<title>Visit to Asia&#45;&gt;Tuberculosis</title>
<path fill="none" stroke="black" d="M55.48,-215.7C55.48,-207.98 55.48,-198.71 55.48,-190.11"/>
<polygon fill="black" stroke="black" points="58.98,-190.1 55.48,-180.1 51.98,-190.1 58.98,-190.1"/>
</g>
<!-- TB or cancer -->
<g id="node6" class="node">
<title>TB or cancer</title>
<ellipse fill="none" stroke="black" cx="144.48" cy="-90" rx="56.03" ry="18"/>
<text text-anchor="middle" x="144.48" y="-85.8" font-family="Times,serif" font-size="14.00">TB or cancer</text>
</g>
<!-- Tuberculosis&#45;&gt;TB or cancer -->
<g id="edge4" class="edge">
<title>Tuberculosis&#45;&gt;TB or cancer</title>
<path fill="none" stroke="black" d="M75.68,-145.12C87.74,-135.63 103.24,-123.44 116.47,-113.03"/>
<polygon fill="black" stroke="black" points="118.67,-115.75 124.37,-106.82 114.34,-110.25 118.67,-115.75"/>
</g>
<!-- Smoker -->
<g id="node3" class="node">
<title>Smoker</title>
<ellipse fill="none" stroke="black" cx="224.48" cy="-234" rx="37.74" ry="18"/>
<text text-anchor="middle" x="224.48" y="-229.8" font-family="Times,serif" font-size="14.00">Smoker</text>
</g>
<!-- Lung cancer -->
<g id="node4" class="node">
<title>Lung cancer</title>
<ellipse fill="none" stroke="black" cx="183.48" cy="-162" rx="54.1" ry="18"/>
<text text-anchor="middle" x="183.48" y="-157.8" font-family="Times,serif" font-size="14.00">Lung cancer</text>
</g>
<!-- Smoker&#45;&gt;Lung cancer -->
<g id="edge2" class="edge">
<title>Smoker&#45;&gt;Lung cancer</title>
<path fill="none" stroke="black" d="M214.76,-216.41C209.93,-208.16 203.99,-198.01 198.58,-188.78"/>
<polygon fill="black" stroke="black" points="201.49,-186.82 193.41,-179.96 195.45,-190.35 201.49,-186.82"/>
</g>
<!-- Bronchitis -->
<g id="node5" class="node">
<title>Bronchitis</title>
<ellipse fill="none" stroke="black" cx="265.48" cy="-90" rx="46.91" ry="18"/>
<text text-anchor="middle" x="265.48" y="-85.8" font-family="Times,serif" font-size="14.00">Bronchitis</text>
</g>
<!-- Smoker&#45;&gt;Bronchitis -->
<g id="edge3" class="edge">
<title>Smoker&#45;&gt;Bronchitis</title>
<path fill="none" stroke="black" d="M232.43,-216.11C237.02,-205.84 242.63,-192.37 246.48,-180 252.81,-159.67 257.74,-136.07 260.99,-118.29"/>
<polygon fill="black" stroke="black" points="264.47,-118.76 262.76,-108.3 257.57,-117.54 264.47,-118.76"/>
</g>
<!-- Lung cancer&#45;&gt;TB or cancer -->
<g id="edge5" class="edge">
<title>Lung cancer&#45;&gt;TB or cancer</title>
<path fill="none" stroke="black" d="M174.04,-144.05C169.44,-135.8 163.82,-125.7 158.71,-116.54"/>
<polygon fill="black" stroke="black" points="161.76,-114.82 153.84,-107.79 155.64,-118.23 161.76,-114.82"/>
</g>
<!-- Dispnea -->
<g id="node8" class="node">
<title>Dispnea</title>
<ellipse fill="none" stroke="black" cx="264.48" cy="-18" rx="39.17" ry="18"/>
<text text-anchor="middle" x="264.48" y="-13.8" font-family="Times,serif" font-size="14.00">Dispnea</text>
</g>
<!-- Bronchitis&#45;&gt;Dispnea -->
<g id="edge8" class="edge">
<title>Bronchitis&#45;&gt;Dispnea</title>
<path fill="none" stroke="black" d="M265.23,-71.7C265.12,-63.98 264.99,-54.71 264.87,-46.11"/>
<polygon fill="black" stroke="black" points="268.37,-46.05 264.73,-36.1 261.37,-46.15 268.37,-46.05"/>
</g>
<!-- Positive X&#45;ray -->
<g id="node7" class="node">
<title>Positive X&#45;ray</title>
<ellipse fill="none" stroke="black" cx="144.48" cy="-18" rx="61.38" ry="18"/>
<text text-anchor="middle" x="144.48" y="-13.8" font-family="Times,serif" font-size="14.00">Positive X&#45;ray</text>
</g>
<!-- TB or cancer&#45;&gt;Positive X&#45;ray -->
<g id="edge6" class="edge">
<title>TB or cancer&#45;&gt;Positive X&#45;ray</title>
<path fill="none" stroke="black" d="M144.48,-71.7C144.48,-63.98 144.48,-54.71 144.48,-46.11"/>
<polygon fill="black" stroke="black" points="147.98,-46.1 144.48,-36.1 140.98,-46.1 147.98,-46.1"/>
</g>
<!-- TB or cancer&#45;&gt;Dispnea -->
<g id="edge7" class="edge">
<title>TB or cancer&#45;&gt;Dispnea</title>
<path fill="none" stroke="black" d="M170.22,-73.98C188.42,-63.37 212.93,-49.07 232.39,-37.72"/>
<polygon fill="black" stroke="black" points="234.34,-40.63 241.22,-32.57 230.82,-34.59 234.34,-40.63"/>
</g>
</g>
</svg>
